<svg width="40" height="40" viewBox="0 0 40 40" fill="none" xmlns="http://www.w3.org/2000/svg">
<path d="M20 0C14.6957 0 9.60859 2.10714 5.85786 5.85786C2.10714 9.60859 0 14.6957 0 20C0 25.3043 2.10714 30.3914 5.85786 34.1421C9.60859 37.8929 14.6957 40 20 40C25.3043 40 30.3914 37.8929 34.1421 34.1421C37.8929 30.3914 40 25.3043 40 20C40 14.6957 37.8929 9.60859 34.1421 5.85786C30.3914 2.10714 25.3043 0 20 0Z" fill="#039BE5"/>
<path d="M22.7074 25.3011H27.8832L28.6958 20.0432H22.7063V17.1695C22.7063 14.9853 23.42 13.0484 25.4632 13.0484H28.7463V8.46C28.1695 8.3821 26.9495 8.21158 24.6442 8.21158C19.8305 8.21158 17.0084 10.7537 17.0084 16.5453V20.0432H12.06V25.3011H17.0084V39.7526C17.9884 39.9 18.9811 40 20 40C20.9211 40 21.82 39.9158 22.7074 39.7958V25.3011Z" fill="white"/>
</svg>
