<svg width="60" height="60" viewBox="0 0 60 60" fill="none" xmlns="http://www.w3.org/2000/svg">
<path d="M53.7828 30C53.7828 43.1349 43.1349 53.7828 30 53.7828C16.8651 53.7828 6.21724 43.1349 6.21724 30C6.21724 16.8651 16.8651 6.21724 30 6.21724C43.1349 6.21724 53.7828 16.8651 53.7828 30Z" fill="#FFD400"/>
<path fill-rule="evenodd" clip-rule="evenodd" d="M55.3655 30C55.3655 44.009 44.009 55.3655 30 55.3655C15.991 55.3655 4.63448 44.009 4.63448 30C4.63448 15.991 15.991 4.63448 30 4.63448C44.009 4.63448 55.3655 15.991 55.3655 30ZM54.3 30C54.3 43.4205 43.4205 54.3 30 54.3C16.5795 54.3 5.7 43.4205 5.7 30C5.7 16.5795 16.5795 5.7 30 5.7C43.4205 5.7 54.3 16.5795 54.3 30Z" fill="#FFD400"/>
<path fill-rule="evenodd" clip-rule="evenodd" d="M30 58.0655C45.5002 58.0655 58.0655 45.5002 58.0655 30C58.0655 14.4998 45.5002 1.93448 30 1.93448C14.4998 1.93448 1.93448 14.4998 1.93448 30C1.93448 45.5002 14.4998 58.0655 30 58.0655ZM56.4 30C56.4 44.5803 44.5803 56.4 30 56.4C15.4197 56.4 3.6 44.5803 3.6 30C3.6 15.4197 15.4197 3.6 30 3.6C44.5803 3.6 56.4 15.4197 56.4 30Z" fill="#FFD400"/>
<path fill-rule="evenodd" clip-rule="evenodd" d="M30 60C46.5685 60 60 46.5685 60 30C60 13.4315 46.5685 0 30 0C13.4315 0 0 13.4315 0 30C0 46.5685 13.4315 60 30 60ZM30 59.1C46.0715 59.1 59.1 46.0715 59.1 30C59.1 13.9285 46.0715 0.9 30 0.9C13.9285 0.9 0.9 13.9285 0.9 30C0.9 46.0715 13.9285 59.1 30 59.1Z" fill="#FFD400"/>
<path d="M9.03342 28.9666C10.0536 27.7316 11.1215 26.6075 12.2282 25.5972C17.2329 21.0299 23.1753 18.5899 29.3018 18.4674C31.5923 18.4215 33.9049 18.7002 36.1994 19.3132L34.1381 21.3799C32.5388 21.0593 30.9374 20.9165 29.3503 20.9483C23.8303 21.0589 18.4524 23.2787 13.8974 27.4361C13.086 28.1765 12.3047 28.9729 11.5576 29.8236C12.9789 31.4762 14.56 32.9045 16.254 34.1038C17.2972 34.8428 18.3826 35.4947 19.4994 36.0593L17.6623 37.9014C16.6911 37.3749 15.7443 36.7868 14.8275 36.1374C12.6828 34.6188 10.7033 32.7666 8.96918 30.5888C8.58201 30.0998 8.62041 29.4091 9.03342 28.9666ZM42.2263 15.9L44.2837 17.9629L18.517 43.8L16.4593 41.7364L42.2263 15.9ZM42.8163 22.0643C44.3605 22.9489 45.8771 23.9995 47.3528 25.2198C48.7063 26.3386 50.0184 27.5908 51.2769 28.9778C51.683 29.4248 51.7029 30.0879 51.3558 30.5556C49.9136 32.5979 48.257 34.3419 46.444 35.7936C41.9082 39.4242 36.3987 41.2116 30.8176 41.2368C28.6831 41.2463 27.3969 40.1372 25.2928 39.6349L26.5304 38.3946C27.9496 38.6414 29.3817 38.7618 30.8079 38.7555C35.8426 38.7331 40.8113 37.1214 44.9006 33.8476C46.2964 32.7305 47.5909 31.4185 48.7507 29.9079C47.7777 28.891 46.7862 27.9675 45.7803 27.1361C44.225 25.8503 42.6236 24.77 40.9949 23.8899L42.8163 22.0643ZM30.1501 22.2513C31.0802 22.2513 31.9711 22.4196 32.7951 22.727L30.8089 24.7185C30.5928 24.6909 30.3732 24.6769 30.1505 24.6769C28.7257 24.6769 27.436 25.2559 26.5025 26.192C25.5689 27.1281 24.9915 28.4216 24.9915 29.8502C24.9915 30.0739 25.0054 30.2941 25.033 30.51L23.0469 32.5023C22.74 31.6765 22.5724 30.7828 22.5724 29.8502C22.5724 27.7515 23.4208 25.8524 24.7921 24.477C26.1631 23.1016 28.0575 22.2513 30.1501 22.2513ZM37.3675 27.5278C37.6014 28.2595 37.7278 29.0401 37.7278 29.8502C37.7278 31.9485 36.8795 33.8479 35.5085 35.223C34.1367 36.5981 32.2424 37.4484 30.1501 37.4484C29.3426 37.4484 28.5644 37.322 27.8344 37.0868L29.8991 35.0165C29.9822 35.0207 30.066 35.0228 30.1501 35.0228C31.5749 35.0228 32.8645 34.4445 33.7981 33.5084C34.7317 32.5723 35.3091 31.2788 35.3091 29.8505C35.3091 29.7662 35.307 29.6825 35.3028 29.5985L37.3675 27.5278Z" fill="black"/>
</svg>
