<svg width="40" height="41" viewBox="0 0 40 41" fill="none" xmlns="http://www.w3.org/2000/svg">
<path d="M40 34.664C40 37.7329 37.5133 40.2195 34.4444 40.2195H5.55556C2.48778 40.2195 0 37.7329 0 34.664V5.7751C0 2.70621 2.48778 0.219543 5.55556 0.219543H34.4444C37.5133 0.219543 40 2.70621 40 5.7751V34.664Z" fill="#424242"/>
<path d="M27.7778 6.88621H22.2222V32.9973C25 32.9973 27.7622 33.5662 27.7778 33.5529C27.7933 33.5395 27.7778 6.88621 27.7778 6.88621Z" fill="#B71C1C"/>
<path d="M12.2222 6.88621H17.7778V32.9973C15 32.9973 12.2378 33.5662 12.2222 33.5529C12.2067 33.5395 12.2222 6.88621 12.2222 6.88621Z" fill="#B71C1C"/>
<path d="M17.7778 6.88621H12.2222L22.2222 32.9973C25 32.9973 27.7622 33.5662 27.7778 33.5529C27.7933 33.5395 17.7778 6.88621 17.7778 6.88621Z" fill="#E53935"/>
</svg>
