<svg width="40" height="41" viewBox="0 0 40 41" fill="none" xmlns="http://www.w3.org/2000/svg">
<path d="M40 20.2195C40 31.2652 31.0457 40.2195 20 40.2195C8.95431 40.2195 0 31.2652 0 20.2195C0 9.17385 8.95431 0.219543 20 0.219543C31.0457 0.219543 40 9.17385 40 20.2195Z" fill="#FF4500"/>
<path d="M31.337 24.701C33.9164 24.701 36.0074 22.61 36.0074 20.0307C36.0074 17.4513 33.9164 15.3603 31.337 15.3603C28.7577 15.3603 26.6667 17.4513 26.6667 20.0307C26.6667 22.61 28.7577 24.701 31.337 24.701Z" fill="url(#paint0_radial_17_84)"/>
<path d="M8.66296 24.701C11.2423 24.701 13.3333 22.61 13.3333 20.0307C13.3333 17.4513 11.2423 15.3603 8.66296 15.3603C6.08359 15.3603 3.99259 17.4513 3.99259 20.0307C3.99259 22.61 6.08359 24.701 8.66296 24.701Z" fill="url(#paint1_radial_17_84)"/>
<path d="M20.0111 34.0418C27.3749 34.0418 33.3444 29.5646 33.3444 24.0418C33.3444 18.5189 27.3749 14.0418 20.0111 14.0418C12.6473 14.0418 6.67778 18.5189 6.67778 24.0418C6.67778 29.5646 12.6473 34.0418 20.0111 34.0418Z" fill="url(#paint2_radial_17_84)"/>
<path d="M16.0704 23.0862C15.9926 24.7677 14.8685 25.3788 13.5593 25.3788C12.25 25.3788 11.2519 24.4658 11.3296 22.7844C11.4074 21.1029 12.5315 20.0029 13.8407 20.0029C15.15 20.0029 16.1481 21.4066 16.0704 23.0881V23.0862Z" fill="url(#paint3_radial_17_84)"/>
<path d="M23.9537 23.0862C24.0315 24.7677 25.1556 25.3788 26.4648 25.3788C27.7741 25.3788 28.7722 24.4658 28.6944 22.7844C28.6167 21.1029 27.4926 20.0029 26.1833 20.0029C24.8741 20.0029 23.8759 21.4066 23.9537 23.0881V23.0862Z" fill="url(#paint4_radial_17_84)"/>
<path d="M14.7463 22.3344C15.0327 22.3344 15.2648 22.0815 15.2648 21.7695C15.2648 21.4576 15.0327 21.2047 14.7463 21.2047C14.4599 21.2047 14.2278 21.4576 14.2278 21.7695C14.2278 22.0815 14.4599 22.3344 14.7463 22.3344Z" fill="#FFC49C"/>
<path d="M27.0759 22.3344C27.3623 22.3344 27.5944 22.0815 27.5944 21.7695C27.5944 21.4576 27.3623 21.2047 27.0759 21.2047C26.7896 21.2047 26.5574 21.4576 26.5574 21.7695C26.5574 22.0815 26.7896 22.3344 27.0759 22.3344Z" fill="#FFC49C"/>
<path d="M20.0111 26.6862C18.3889 26.6862 16.8333 26.7658 15.3963 26.9121C15.15 26.9362 14.9944 27.1918 15.0907 27.4195C15.8963 29.3436 17.7963 30.6955 20.0111 30.6955C22.2259 30.6955 24.1278 29.3436 24.9315 27.4195C25.0278 27.1918 24.8704 26.9362 24.6259 26.9121C23.187 26.7658 21.6333 26.6862 20.0111 26.6862Z" fill="url(#paint5_radial_17_84)"/>
<path d="M27.313 12.6825C29.1406 12.6825 30.6222 11.2009 30.6222 9.37325C30.6222 7.54559 29.1406 6.06399 27.313 6.06399C25.4853 6.06399 24.0037 7.54559 24.0037 9.37325C24.0037 11.2009 25.4853 12.6825 27.313 12.6825Z" fill="url(#paint6_radial_17_84)"/>
<path d="M19.963 14.464C19.5667 14.464 19.2463 14.2992 19.2463 14.0436C19.2463 11.0788 21.6593 8.66584 24.6241 8.66584C25.0204 8.66584 25.3407 8.98621 25.3407 9.38251C25.3407 9.7788 25.0204 10.0992 24.6241 10.0992C22.45 10.0992 20.6815 11.8677 20.6815 14.0418C20.6815 14.2973 20.3611 14.4621 19.9648 14.4621L19.963 14.464Z" fill="url(#paint7_radial_17_84)"/>
<path d="M11.6333 22.9325C11.7056 21.3473 12.7593 20.3103 13.9833 20.3103C15.1426 20.3103 16.0389 21.4936 16.0722 22.964C16.1037 21.3195 15.1222 20.0029 13.8407 20.0029C12.5593 20.0029 11.4074 21.1232 11.3296 22.8177C11.2519 24.5121 12.25 25.3788 13.5593 25.3788C13.5907 25.3788 13.6241 25.3788 13.6556 25.3788C12.463 25.3492 11.563 24.4918 11.6352 22.9344L11.6333 22.9325Z" fill="#842123"/>
<path d="M28.3889 22.9325C28.3167 21.3473 27.263 20.3103 26.0389 20.3103C24.8796 20.3103 23.9833 21.4936 23.95 22.964C23.9185 21.3195 24.9 20.0029 26.1815 20.0029C27.4907 20.0029 28.6148 21.1232 28.6926 22.8177C28.7704 24.5121 27.7722 25.3788 26.463 25.3788C26.4315 25.3788 26.3981 25.3788 26.3667 25.3788C27.5593 25.3492 28.4593 24.4918 28.387 22.9344L28.3889 22.9325Z" fill="#842123"/>
<defs>
<radialGradient id="paint0_radial_17_84" cx="0" cy="0" r="1" gradientUnits="userSpaceOnUse" gradientTransform="translate(20.4203 8.2174) scale(40.4282 35.1726)">
<stop stop-color="#FEFFFF"/>
<stop offset="0.4" stop-color="#FEFFFF"/>
<stop offset="0.51" stop-color="#F9FCFC"/>
<stop offset="0.62" stop-color="#EDF3F5"/>
<stop offset="0.7" stop-color="#DEE9EC"/>
<stop offset="0.72" stop-color="#D8E4E8"/>
<stop offset="0.76" stop-color="#CCD8DF"/>
<stop offset="0.8" stop-color="#C8D5DD"/>
<stop offset="0.83" stop-color="#CCD6DE"/>
<stop offset="0.85" stop-color="#D8DBE2"/>
<stop offset="0.88" stop-color="#EDE3E9"/>
<stop offset="0.9" stop-color="#FFEBEF"/>
</radialGradient>
<radialGradient id="paint1_radial_17_84" cx="0" cy="0" r="1" gradientUnits="userSpaceOnUse" gradientTransform="translate(20.4203 -55.0422) scale(40.4282 35.1726)">
<stop stop-color="#FEFFFF"/>
<stop offset="0.4" stop-color="#FEFFFF"/>
<stop offset="0.51" stop-color="#F9FCFC"/>
<stop offset="0.62" stop-color="#EDF3F5"/>
<stop offset="0.7" stop-color="#DEE9EC"/>
<stop offset="0.72" stop-color="#D8E4E8"/>
<stop offset="0.76" stop-color="#CCD8DF"/>
<stop offset="0.8" stop-color="#C8D5DD"/>
<stop offset="0.83" stop-color="#CCD6DE"/>
<stop offset="0.85" stop-color="#D8DBE2"/>
<stop offset="0.88" stop-color="#EDE3E9"/>
<stop offset="0.9" stop-color="#FFEBEF"/>
</radialGradient>
<radialGradient id="paint2_radial_17_84" cx="0" cy="0" r="1" gradientUnits="userSpaceOnUse" gradientTransform="translate(20.4306 4.23177) scale(42.7167 39.8689)">
<stop stop-color="#FEFFFF"/>
<stop offset="0.4" stop-color="#FEFFFF"/>
<stop offset="0.51" stop-color="#F9FCFC"/>
<stop offset="0.62" stop-color="#EDF3F5"/>
<stop offset="0.7" stop-color="#DEE9EC"/>
<stop offset="0.72" stop-color="#D8E4E8"/>
<stop offset="0.76" stop-color="#CCD8DF"/>
<stop offset="0.8" stop-color="#C8D5DD"/>
<stop offset="0.83" stop-color="#CCD6DE"/>
<stop offset="0.85" stop-color="#D8DBE2"/>
<stop offset="0.88" stop-color="#EDE3E9"/>
<stop offset="0.9" stop-color="#FFEBEF"/>
</radialGradient>
<radialGradient id="paint3_radial_17_84" cx="0" cy="0" r="1" gradientUnits="userSpaceOnUse" gradientTransform="translate(21.0439 28.7197) scale(21.4451 27.444)">
<stop stop-color="#FF6600"/>
<stop offset="0.5" stop-color="#FF4500"/>
<stop offset="0.7" stop-color="#FC4301"/>
<stop offset="0.82" stop-color="#F43F07"/>
<stop offset="0.92" stop-color="#E53812"/>
<stop offset="1" stop-color="#D4301F"/>
</radialGradient>
<radialGradient id="paint4_radial_17_84" cx="0" cy="0" r="1" gradientUnits="userSpaceOnUse" gradientTransform="translate(19.093 28.7197) rotate(180) scale(21.4451 27.444)">
<stop stop-color="#FF6600"/>
<stop offset="0.5" stop-color="#FF4500"/>
<stop offset="0.7" stop-color="#FC4301"/>
<stop offset="0.82" stop-color="#F43F07"/>
<stop offset="0.92" stop-color="#E53812"/>
<stop offset="1" stop-color="#D4301F"/>
</radialGradient>
<radialGradient id="paint5_radial_17_84" cx="0" cy="0" r="1" gradientUnits="userSpaceOnUse" gradientTransform="translate(19.9031 45.8059) scale(33.9004 55.2388)">
<stop stop-color="#172E35"/>
<stop offset="0.29" stop-color="#0E1C21"/>
<stop offset="0.73" stop-color="#030708"/>
<stop offset="1"/>
</radialGradient>
<radialGradient id="paint6_radial_17_84" cx="0" cy="0" r="1" gradientUnits="userSpaceOnUse" gradientTransform="translate(20.4365 1.63107) scale(44.5104 43.6201)">
<stop stop-color="#FEFFFF"/>
<stop offset="0.4" stop-color="#FEFFFF"/>
<stop offset="0.51" stop-color="#F9FCFC"/>
<stop offset="0.62" stop-color="#EDF3F5"/>
<stop offset="0.7" stop-color="#DEE9EC"/>
<stop offset="0.72" stop-color="#D8E4E8"/>
<stop offset="0.76" stop-color="#CCD8DF"/>
<stop offset="0.8" stop-color="#C8D5DD"/>
<stop offset="0.83" stop-color="#CCD6DE"/>
<stop offset="0.85" stop-color="#D8DBE2"/>
<stop offset="0.88" stop-color="#EDE3E9"/>
<stop offset="0.9" stop-color="#FFEBEF"/>
</radialGradient>
<radialGradient id="paint7_radial_17_84" cx="0" cy="0" r="1" gradientUnits="userSpaceOnUse" gradientTransform="translate(33.2786 35.3138) scale(39.6232 41.648)">
<stop offset="0.48" stop-color="#7A9299"/>
<stop offset="0.67" stop-color="#172E35"/>
<stop offset="0.75"/>
<stop offset="0.82" stop-color="#172E35"/>
</radialGradient>
</defs>
</svg>
