<svg width="36" height="41" viewBox="0 0 36 41" fill="none" xmlns="http://www.w3.org/2000/svg">
<path fill-rule="evenodd" clip-rule="evenodd" d="M24.5955 0.219543C25.2398 5.71951 28.5351 9.60016 33.8661 9.94241V15.1591L33.8317 15.1623V10.7309C28.5007 10.3889 25.4357 7.1089 24.7915 1.60894L19.1442 1.60882V24.7476C19.9591 35.1627 11.8438 35.472 8.73958 31.5232C12.3807 33.8005 18.2928 32.3203 17.5917 23.3584V0.219543H24.5957H24.5955ZM9.42204 38.5777C6.23104 37.9212 3.3295 36.0147 1.62558 33.227C-2.51404 26.4544 1.21745 15.4165 13.224 14.2805V20.8021L13.2043 20.8053V15.9124C2.07295 17.6852 0.955361 29.6424 4.03811 34.6163C5.22686 36.5344 7.17847 37.8836 9.42192 38.5777H9.42204Z" fill="#26F4EE"/>
<path fill-rule="evenodd" clip-rule="evenodd" d="M26.2127 1.61002C26.6333 5.2005 28.0858 8.25649 30.5266 10.0413C27.2239 8.76902 25.2883 5.84911 24.7915 1.60966L26.2127 1.61002ZM33.8316 11.5058C34.2859 11.6023 34.7597 11.6676 35.2529 11.6991V17.8829C32.1604 18.1873 29.4542 17.1693 26.3007 15.2729L26.7848 25.8633C26.7848 29.2786 26.7975 30.8395 24.9648 33.9813C20.8535 41.0295 13.4533 41.5865 8.44905 38.2295C14.9927 40.9298 24.8987 37.6523 24.8794 25.8633V14.3046C28.0329 16.201 30.7391 17.219 33.8316 16.9145V11.5058ZM13.2043 15.9756C13.8511 15.8409 14.5301 15.7373 15.2441 15.6698V22.1913C12.6441 22.6196 10.9928 23.418 10.2205 24.8948C7.78844 29.5453 10.9198 33.2339 14.4227 33.7883C10.3509 34.4649 5.57595 30.3382 8.42265 24.8948C9.19475 23.4182 10.6043 22.6196 13.2043 22.1913V15.9756Z" fill="#FB2C53"/>
<path fill-rule="evenodd" clip-rule="evenodd" d="M24.7914 1.60894C25.4357 7.1089 28.5007 10.3888 33.8316 10.7309V16.9145C30.7391 17.2191 28.0329 16.201 24.8794 14.3046V25.8633C24.9041 40.9497 8.67478 42.0976 4.03811 34.6162C0.955481 29.6422 2.07295 17.6851 13.2043 15.9123V22.1912C10.6043 22.6195 9.19475 23.4181 8.42265 24.8946C3.6511 34.0191 20.294 39.4477 19.1439 24.7476V1.60882L24.7914 1.60894Z" fill="black"/>
</svg>
