<svg width="40" height="33" viewBox="0 0 40 33" fill="none" xmlns="http://www.w3.org/2000/svg">
<path d="M40 3.80968C38.5301 4.46074 36.9491 4.89515 35.2815 5.10069C36.9769 4.0941 38.2813 2.48868 38.8934 0.592173C37.3069 1.5221 35.5493 2.20537 33.6794 2.56534C32.1862 0.982141 30.0564 0 27.6966 0C23.1636 0 19.4895 3.64192 19.4895 8.13266C19.4895 8.76816 19.5639 9.387 19.7039 9.98806C12.8845 9.64586 6.8361 6.40391 2.78977 1.48432C2.07872 2.68644 1.67875 4.0941 1.67875 5.57954C1.67875 8.40263 3.12418 10.888 5.32844 12.3523C3.983 12.3112 2.71644 11.9368 1.60764 11.3368C1.60764 11.3613 1.60764 11.3979 1.60764 11.4324C1.60764 15.3776 4.43741 18.6629 8.18821 19.4106C7.50271 19.5984 6.77832 19.7028 6.03172 19.7028C5.50176 19.7028 4.98514 19.6428 4.48518 19.5528C5.52954 22.777 8.55929 25.1335 12.149 25.2035C9.34033 27.3811 5.80285 28.6854 1.9565 28.6854C1.29211 28.6854 0.642169 28.6476 0 28.5698C3.63414 30.8708 7.94934 32.2195 12.5812 32.2195C27.6744 32.2195 35.9315 19.825 35.9315 9.07258C35.9315 8.72038 35.9203 8.3693 35.9037 8.02267C37.5147 6.88498 38.9034 5.44955 40 3.80968Z" fill="#03A9F4"/>
</svg>
