<svg width="40" height="30" viewBox="0 0 40 30" fill="none" xmlns="http://www.w3.org/2000/svg">
<path d="M39.1022 24.8379C38.7032 26.9327 37.0075 28.5287 34.9127 28.8279C31.6209 29.3267 26.1347 29.9252 19.9501 29.9252C13.8653 29.9252 8.37905 29.3267 4.98753 28.8279C2.89277 28.5287 1.19701 26.9327 0.798005 24.8379C0.399003 22.5436 0 19.1521 0 14.9626C0 10.7731 0.399003 7.38155 0.798005 5.08728C1.19701 2.99252 2.89277 1.39651 4.98753 1.09726C8.2793 0.598504 13.7656 0 19.9501 0C26.1347 0 31.5212 0.598504 34.9127 1.09726C37.0075 1.39651 38.7032 2.99252 39.1022 5.08728C39.5013 7.38155 40 10.7731 40 14.9626C39.9002 19.1521 39.5013 22.5436 39.1022 24.8379Z" fill="#FF3D00"/>
<path d="M15.9601 21.9451V7.98005L27.9302 14.9626L15.9601 21.9451Z" fill="white"/>
</svg>
